<svg width="979" height="742" viewBox="0 0 979 742" fill="none" xmlns="http://www.w3.org/2000/svg">
<g filter="url(#filter0_d_1_18)">
<path d="M817.5 169.56C856.964 215.049 847.932 268.297 873.921 317.383C900.781 368.116 965.521 411.923 973.153 463.553C980.976 516.473 944.896 560.51 916.325 604.228C885.339 651.642 868.485 717.142 798.304 731.101C725.388 745.604 642.302 682.469 561.985 674.706C489.86 667.735 426.873 709.144 356.125 688.364C285.881 667.732 247.535 607.544 192.458 566.17C134.187 522.396 50.8492 491.185 20.3457 436.124C-10.1311 381.11 7.47838 323.233 30.454 273.738C51.5466 228.299 117.271 207.639 146.003 165.425C178.777 117.272 148.52 36.969 210.377 9.38502C270.568 -17.4563 361.916 26.4423 439.112 34.7171C509.424 42.254 579.813 32.1579 647.348 56.2249C715.196 80.4033 776.101 121.842 817.5 169.56Z" fill="#2A56F1" fill-opacity="0.73" shape-rendering="crispEdges"/>
</g>
<defs>
<filter id="filter0_d_1_18" x="0.0887451" y="0.796707" width="978.15" height="740.46" filterUnits="userSpaceOnUse" color-interpolation-filters="sRGB">
<feFlood flood-opacity="0" result="BackgroundImageFix"/>
<feColorMatrix in="SourceAlpha" type="matrix" values="0 0 0 0 0 0 0 0 0 0 0 0 0 0 0 0 0 0 127 0" result="hardAlpha"/>
<feOffset dy="4"/>
<feGaussianBlur stdDeviation="2"/>
<feComposite in2="hardAlpha" operator="out"/>
<feColorMatrix type="matrix" values="0 0 0 0 0 0 0 0 0 0 0 0 0 0 0 0 0 0 0.25 0"/>
<feBlend mode="normal" in2="BackgroundImageFix" result="effect1_dropShadow_1_18"/>
<feBlend mode="normal" in="SourceGraphic" in2="effect1_dropShadow_1_18" result="shape"/>
</filter>
</defs>
</svg>
