<svg width="971" height="734" viewBox="0 0 971 734" fill="none" xmlns="http://www.w3.org/2000/svg">
<path d="M813.5 169.56C852.964 215.049 843.932 268.297 869.921 317.383C896.781 368.116 961.521 411.923 969.153 463.553C976.976 516.473 940.896 560.51 912.325 604.228C881.339 651.642 864.485 717.142 794.304 731.101C721.388 745.604 638.302 682.469 557.985 674.706C485.86 667.735 422.873 709.144 352.125 688.364C281.881 667.732 243.535 607.544 188.458 566.17C130.187 522.396 46.8492 491.185 16.3457 436.124C-14.1311 381.11 3.47837 323.233 26.454 273.738C47.5466 228.299 113.271 207.639 142.003 165.425C174.777 117.272 144.52 36.969 206.377 9.38502C266.568 -17.4563 357.916 26.4423 435.112 34.7171C505.424 42.254 575.813 32.1579 643.348 56.2249C711.196 80.4033 772.101 121.842 813.5 169.56Z" fill="#2A56F1" fill-opacity="0.73"/>
</svg>
