<svg width="773" height="655" viewBox="0 0 773 655" fill="none" xmlns="http://www.w3.org/2000/svg">
<path d="M517.618 10.0374C560.994 25.541 591.059 62.0243 628.461 88.5458C675.568 121.949 750.166 133.328 767.967 187.557C785.47 240.88 743.674 297.407 712.417 344.311C685.835 384.2 621.856 391.922 602.623 435.673C575.146 498.178 633.786 588.984 583.995 636.446C541.125 677.312 464.451 639.436 407.421 621.749C358.828 606.679 328.836 556.894 280.121 542.206C223.089 525.01 153.317 562.773 103.772 530.195C56.4266 499.064 49.974 433.242 33.2122 379.854C16.0149 325.079 -10.0716 268.129 4.03194 212.512C18.0791 157.117 65.4061 115.94 109.577 78.7119C148.955 45.5226 195.942 22.7767 245.861 8.6909C290.792 -3.98732 337.41 0.998837 384.168 1.23051C429.317 1.45421 475.203 -5.12247 517.618 10.0374Z" fill="#6DB9FF"/>
</svg>
